<svg xmlns="http://www.w3.org/2000/svg" width="16.644" height="17.357" viewBox="0 0 16.644 17.357">
  <g id="Group_6838" data-name="Group 6838" transform="translate(-4973.356 -18.25)">
    <g id="Layer_1" data-name="Layer 1" transform="translate(4973.356 18.25)">
      <path id="Path_2419" data-name="Path 2419" d="M15.881,9a.618.618,0,0,1,0-.592c.2-.393.392-.787.579-1.185a1.511,1.511,0,0,0-.691-2.108c-.371-.2-.741-.4-1.12-.592a.686.686,0,0,1-.4-.538c-.061-.372-.132-.743-.181-1.117A1.54,1.54,0,0,0,12.28,1.419c-.381.066-.766.111-1.149.166a.853.853,0,0,1-.856-.257c-.253-.292-.554-.544-.834-.813A1.518,1.518,0,0,0,7.2.513c-.294.281-.595.556-.875.849a.7.7,0,0,1-.653.235C5.2,1.53,4.73,1.465,4.256,1.41A1.464,1.464,0,0,0,2.665,2.5a13.4,13.4,0,0,0-.26,1.4.752.752,0,0,1-.435.631c-.373.176-.732.383-1.1.581A1.512,1.512,0,0,0,.182,7.218c.187.4.382.792.579,1.185a.615.615,0,0,1,0,.592C.567,9.379.38,9.767.19,10.154A1.569,1.569,0,0,0,0,10.919a1.5,1.5,0,0,0,.847,1.358c.363.2.722.4,1.1.579a.784.784,0,0,1,.463.67c.072.479.152.96.271,1.429a1.47,1.47,0,0,0,1.575,1.04c.428-.058.855-.124,1.283-.183a.833.833,0,0,1,.83.261c.252.293.553.545.834.813a1.517,1.517,0,0,0,2.239,0c.294-.281.595-.555.875-.85a.7.7,0,0,1,.653-.234c.472.067.945.133,1.419.187A1.463,1.463,0,0,0,13.976,14.9a13.254,13.254,0,0,0,.26-1.4.751.751,0,0,1,.436-.631c.373-.176.732-.383,1.1-.581a1.511,1.511,0,0,0,.692-2.108c-.187-.4-.382-.792-.579-1.185Zm-.589,2.412c-.371.2-.742.4-1.12.592a1.613,1.613,0,0,0-.908,1.231c-.077.425-.144.851-.218,1.276-.062.358-.23.511-.592.479-.457-.041-.912-.107-1.365-.18a1.528,1.528,0,0,0-1.367.415c-.328.31-.65.628-.976.94a.54.54,0,0,1-.849,0c-.268-.256-.547-.5-.8-.775a1.821,1.821,0,0,0-1.871-.541,8.138,8.138,0,0,1-1.07.141.48.48,0,0,1-.561-.454c-.091-.486-.177-.972-.268-1.459a1.418,1.418,0,0,0-.746-1.008c-.4-.224-.809-.43-1.212-.647s-.467-.433-.269-.841c.176-.364.347-.729.535-1.087a1.609,1.609,0,0,0-.007-1.6c-.194-.364-.369-.739-.546-1.111A.517.517,0,0,1,1.34,6q.568-.309,1.144-.6a1.633,1.633,0,0,0,.906-1.32c.058-.418.135-.835.214-1.25.056-.29.262-.425.655-.415.4.056.855.113,1.308.186a1.514,1.514,0,0,0,1.344-.408c.336-.315.663-.64,1-.958a.536.536,0,0,1,.829,0c.275.262.562.513.815.794a1.8,1.8,0,0,0,1.847.534,8.532,8.532,0,0,1,1.069-.144.484.484,0,0,1,.577.466c.089.486.175.973.269,1.458a1.418,1.418,0,0,0,.754,1c.4.221.81.429,1.212.647a.528.528,0,0,1,.264.823c-.175.364-.344.731-.534,1.088A1.609,1.609,0,0,0,15,9.491c.192.366.368.739.546,1.111a.522.522,0,0,1-.258.8Z" transform="translate(0.001 -0.021)"/>
      <path id="Path_2420" data-name="Path 2420" d="M90.873,90.309c.016.229-.136.363-.277.5L84.448,96.96c-.109.109-.213.222-.328.323a.5.5,0,0,1-.7-.707c.047-.055.1-.1.151-.155q3.151-3.151,6.3-6.3a1.564,1.564,0,0,1,.24-.217.462.462,0,0,1,.488-.024.484.484,0,0,1,.275.43Z" transform="translate(-78.751 -84.948)"/>
      <path id="Path_2421" data-name="Path 2421" d="M84.332,76.99a1.834,1.834,0,1,0,1.84,1.83,1.853,1.853,0,0,0-1.84-1.83Zm.025,2.656a.824.824,0,1,1,.8-.841.811.811,0,0,1-.8.841Z" transform="translate(-78.013 -72.813)"/>
      <path id="Path_2422" data-name="Path 2422" d="M158.186,175.31a1.833,1.833,0,1,0,1.846,1.837,1.856,1.856,0,0,0-1.846-1.837Zm.018,2.658a.824.824,0,1,1,.81-.831A.81.81,0,0,1,158.2,177.968Z" transform="translate(-147.865 -165.797)"/>
    </g>
  </g>
</svg>
