<svg xmlns="http://www.w3.org/2000/svg" width="19.939" height="19.232" viewBox="0 0 19.939 19.232">
  <g id="Layer_1" data-name="Layer 1" transform="translate(0.004 -0.003)">
    <path id="Path_2413" data-name="Path 2413" d="M14.228,17.955l3.865-4.226c.288-.315.572-.634.862-.947.081-.087.127-.141.021-.256-1.567-1.709-3.129-3.422-4.748-5.2,0,.761,0,1.443,0,2.125,0,.419-.1.518-.525.518-2.314,0-4.628.009-6.942-.009-.33,0-.382.1-.374.392.021.783,0,1.566.008,2.349,0,.19-.026.359-.22.443-.213.091-.354-.028-.49-.178Q2.931,9.949.166,6.933A.426.426,0,0,1,.157,6.26Q2.936,3.231,5.7.195c.129-.142.266-.243.462-.165S6.4.271,6.4.464c0,.807.009,1.615-.008,2.421-.006.26.052.333.325.332,3.014-.012,6.028-.007,9.042-.007a1.98,1.98,0,0,1,.285,0,.354.354,0,0,1-.011.705,2.186,2.186,0,0,1-.249,0h-9.5c-.519,0-.592-.073-.592-.593V1.3c-.177.187-.317.332-.454.481q-2.1,2.3-4.2,4.59C.89,6.52.833,6.613,1,6.8Q3.307,9.29,5.593,11.8c.013.014.037.016.09.038,0-.7,0-1.379,0-2.062,0-.418.1-.515.526-.515,2.314,0,4.628-.005,6.942.006.282,0,.385-.043.374-.355-.026-.795-.006-1.59-.011-2.385,0-.19.026-.359.22-.441.213-.089.354.029.49.179q2.745,3.01,5.493,6.016c.289.316.29.41.007.719q-2.747,3.008-5.493,6.016c-.135.147-.271.276-.488.189s-.231-.27-.23-.471c0-.795-.011-1.59.009-2.385.006-.268-.064-.328-.329-.327-3,.011-6,.006-9.006.006-.083,0-.166,0-.249,0-.238-.005-.392-.123-.386-.365s.167-.349.4-.347h9.682c.515,0,.589.074.589.6v2.043Z" transform="translate(0 0)"/>
  </g>
</svg>
