<svg xmlns="http://www.w3.org/2000/svg" width="13.139" height="13.139" viewBox="0 0 13.139 13.139">
  <path id="Path_631" data-name="Path 631" d="M2.25,3.658A1.408,1.408,0,0,1,3.658,2.25H6.473A1.408,1.408,0,0,1,7.881,3.658V6.473A1.408,1.408,0,0,1,6.473,7.881H3.658A1.408,1.408,0,0,1,2.25,6.473Zm1.408-.469a.469.469,0,0,0-.469.469V6.473a.469.469,0,0,0,.469.469H6.473a.469.469,0,0,0,.469-.469V3.658a.469.469,0,0,0-.469-.469Zm6.1.469A1.408,1.408,0,0,1,11.166,2.25h2.815a1.408,1.408,0,0,1,1.408,1.408V6.473a1.408,1.408,0,0,1-1.408,1.408H11.166A1.408,1.408,0,0,1,9.758,6.473Zm1.408-.469a.469.469,0,0,0-.469.469V6.473a.469.469,0,0,0,.469.469h2.815a.469.469,0,0,0,.469-.469V3.658a.469.469,0,0,0-.469-.469ZM2.25,11.166A1.408,1.408,0,0,1,3.658,9.758H6.473a1.408,1.408,0,0,1,1.408,1.408v2.815a1.408,1.408,0,0,1-1.408,1.408H3.658A1.408,1.408,0,0,1,2.25,13.981ZM3.658,10.7a.469.469,0,0,0-.469.469v2.815a.469.469,0,0,0,.469.469H6.473a.469.469,0,0,0,.469-.469V11.166a.469.469,0,0,0-.469-.469Zm6.1.469a1.408,1.408,0,0,1,1.408-1.408h2.815a1.408,1.408,0,0,1,1.408,1.408v2.815a1.408,1.408,0,0,1-1.408,1.408H11.166a1.408,1.408,0,0,1-1.408-1.408Zm1.408-.469a.469.469,0,0,0-.469.469v2.815a.469.469,0,0,0,.469.469h2.815a.469.469,0,0,0,.469-.469V11.166a.469.469,0,0,0-.469-.469Z" transform="translate(-2.25 -2.25)" fill-rule="evenodd"/>
</svg>
