<svg xmlns="http://www.w3.org/2000/svg" width="18.751" height="24" viewBox="0 0 18.751 24">
  <path id="Icon_awesome-accessible-icon" data-name="Icon awesome-accessible-icon" d="M20.433,11.991l-.6,7.374a1.425,1.425,0,0,1-2.841-.23l.469-5.742L15.53,13.5a7.3,7.3,0,0,1-1.242,8.2l-1.842-1.842a4.686,4.686,0,0,0-6.619-6.619L3.984,11.4A7.271,7.271,0,0,1,7.8,9.516L11.33,5.5l-2-1.163L6.914,6.492a1.426,1.426,0,0,1-1.9-2.128L8.2,1.519A1.421,1.421,0,0,1,9.867,1.35s6.53,3.792,6.539,3.8a1.672,1.672,0,0,1,.286,2.466l-2.738,3.117,4.974-.277A1.422,1.422,0,0,1,20.433,11.991ZM17.391,4.772a2.386,2.386,0,1,0-2.386-2.386,2.387,2.387,0,0,0,2.386,2.386ZM8.981,21.4A4.692,4.692,0,0,1,5.1,14.082L3.244,12.221a7.211,7.211,0,0,0-1.556,4.486,7.3,7.3,0,0,0,11.785,5.742l-1.861-1.861A4.655,4.655,0,0,1,8.981,21.4Z" transform="translate(-1.688)" fill="#ff2929"/>
</svg>
