<svg xmlns="http://www.w3.org/2000/svg" width="14.05" height="22.481" viewBox="0 0 14.05 22.481">
  <path id="Icon_simple-simpleicons" data-name="Icon simple-simpleicons" d="M13.775,11.24V9.835A4.215,4.215,0,1,1,17.99,5.62H19.4a5.62,5.62,0,1,0-5.62,5.62Zm2.845.774a5.622,5.622,0,0,1,2,7.694H20.2a7.027,7.027,0,0,0-6.417-9.873V11.24A5.614,5.614,0,0,1,16.62,12.014ZM13.778,9.835h0M8.931,19.708a5.567,5.567,0,0,1-.776-2.848v-.028H6.75v.028a6.953,6.953,0,0,0,.6,2.848Zm7.655,1.368v-5.62H17.99V14.05H9.56v1.405h1.405v5.62H6.75v1.405H20.8V21.076Zm-1.405,0H12.37v-5.62h2.81ZM11.038,5.547A2.81,2.81,0,0,0,13.775,8.43a2.811,2.811,0,0,0,0-5.62A2.81,2.81,0,0,0,11.038,5.547Zm4.142.075a1.405,1.405,0,1,1-1.405-1.407A1.406,1.406,0,0,1,15.18,5.622Z" transform="translate(-6.75)" fill="#129aff"/>
</svg>
