<svg xmlns="http://www.w3.org/2000/svg" width="372.277" height="325.993" viewBox="0 0 372.277 325.993">
  <path id="Icon_awesome-quote-right" data-name="Icon awesome-quote-right" d="M335.564,2.25H242.995a34.722,34.722,0,0,0-34.714,34.714v92.569a34.722,34.722,0,0,0,34.714,34.714H300.85v46.285a46.328,46.328,0,0,1-46.285,46.285H248.78a17.315,17.315,0,0,0-17.357,17.357v34.713a17.315,17.315,0,0,0,17.357,17.357h5.786A115.68,115.68,0,0,0,370.277,210.531V36.964A34.722,34.722,0,0,0,335.564,2.25Zm-208.281,0H34.714A34.722,34.722,0,0,0,0,36.964v92.569a34.722,34.722,0,0,0,34.714,34.714H92.569v46.285a46.328,46.328,0,0,1-46.285,46.285H40.5a17.315,17.315,0,0,0-17.357,17.357v34.713A17.315,17.315,0,0,0,40.5,326.243h5.786A115.68,115.68,0,0,0,162,210.531V36.964A34.722,34.722,0,0,0,127.283,2.25Z" transform="translate(1 -1.25)" fill="none" stroke="#ceffe0" stroke-width="2"/>
</svg>
