<svg xmlns="http://www.w3.org/2000/svg" width="14" height="16" viewBox="0 0 14 16">
  <path id="Icon_metro-files-empty" data-name="Icon metro-files-empty" d="M17.839,7.507a14.165,14.165,0,0,0-1.362-1.558,14.171,14.171,0,0,0-1.558-1.362A2.492,2.492,0,0,0,13.5,3.928H7.749A1.251,1.251,0,0,0,6.5,5.178v11.5a1.251,1.251,0,0,0,1.25,1.25h9.5a1.251,1.251,0,0,0,1.25-1.25V8.928a2.492,2.492,0,0,0-.659-1.421ZM15.77,6.657A13.638,13.638,0,0,1,16.9,7.928H14.5V5.523A13.628,13.628,0,0,1,15.77,6.657ZM17.5,16.678a.253.253,0,0,1-.25.25h-9.5a.253.253,0,0,1-.25-.25V5.178a.253.253,0,0,1,.25-.25H13.5v3.5a.5.5,0,0,0,.5.5h3.5ZM12.919,2.587A2.492,2.492,0,0,0,11.5,1.928H5.749A1.251,1.251,0,0,0,4.5,3.178v11.5a1.252,1.252,0,0,0,1,1.225V3.178a.253.253,0,0,1,.25-.25h7.607c-.151-.124-.3-.238-.437-.341Z" transform="translate(-4.499 -1.928)"/>
</svg>
