<svg xmlns="http://www.w3.org/2000/svg" width="18" height="18" viewBox="0 0 18 18">
  <g id="Group_6835" data-name="Group 6835" transform="translate(-4704.23 -124.23)">
    <path id="Path_2409" data-name="Path 2409" d="M18.136,15.818A2.318,2.318,0,1,1,15.818,13.5,2.318,2.318,0,0,1,18.136,15.818Z" transform="translate(4697.412 117.412)" fill="none" stroke="#000" stroke-linecap="round" stroke-linejoin="round" stroke-width="1"/>
    <path id="Path_2410" data-name="Path 2410" d="M15.718,12.318a1.275,1.275,0,0,0,.255,1.406l.046.046a1.546,1.546,0,1,1-2.187,2.187l-.046-.046a1.285,1.285,0,0,0-2.179.912v.131a1.545,1.545,0,1,1-3.091,0v-.07a1.275,1.275,0,0,0-.835-1.167,1.275,1.275,0,0,0-1.406.255l-.046.046a1.546,1.546,0,1,1-2.187-2.187l.046-.046a1.285,1.285,0,0,0-.912-2.179H3.045a1.545,1.545,0,1,1,0-3.091h.07a1.275,1.275,0,0,0,1.167-.835,1.275,1.275,0,0,0-.255-1.406L3.98,6.229A1.546,1.546,0,1,1,6.167,4.042l.046.046a1.275,1.275,0,0,0,1.406.255h.062a1.275,1.275,0,0,0,.773-1.167V3.045a1.545,1.545,0,0,1,3.091,0v.07a1.285,1.285,0,0,0,2.179.912l.046-.046a1.546,1.546,0,1,1,2.187,2.187l-.046.046a1.275,1.275,0,0,0-.255,1.406v.062a1.275,1.275,0,0,0,1.167.773h.131a1.545,1.545,0,0,1,0,3.091h-.07a1.275,1.275,0,0,0-1.167.773Z" transform="translate(4703.23 123.23)" fill="none" stroke="#000" stroke-linecap="round" stroke-linejoin="round" stroke-width="1"/>
  </g>
</svg>
